<svg id="visual" viewBox="0 0 900 600" width="900" height="600" xmlns="http://www.w3.org/2000/svg" xmlns:xlink="http://www.w3.org/1999/xlink" version="1.1"><rect x="0" y="0" width="900" height="600" fill="#111927"></rect><path d="M0 365L37.5 368C75 371 150 377 225 362.7C300 348.3 375 313.7 450 293.5C525 273.3 600 267.7 675 267C750 266.3 825 270.7 862.5 272.8L900 275L900 601L862.5 601C825 601 750 601 675 601C600 601 525 601 450 601C375 601 300 601 225 601C150 601 75 601 37.5 601L0 601Z" fill="#141D2B" stroke-linecap="round" stroke-linejoin="miter"></path></svg>