<svg id="visual" viewBox="0 0 960 540" width="960" height="540" xmlns="http://www.w3.org/2000/svg"><rect x="0" y="0" width="960" height="540" fill="#141D2B"></rect><defs><linearGradient id="grad1_0" x1="43.8%" y1="100%" x2="100%" y2="0%"><stop offset="14.444444444444446%" stop-color="#141d2b" stop-opacity="1"></stop><stop offset="85.55555555555554%" stop-color="#141d2b" stop-opacity="1"></stop></linearGradient></defs><defs><linearGradient id="grad2_0" x1="0%" y1="100%" x2="56.3%" y2="0%"><stop offset="14.444444444444446%" stop-color="#141d2b" stop-opacity="1"></stop><stop offset="85.55555555555554%" stop-color="#141d2b" stop-opacity="1"></stop></linearGradient></defs><g transform="translate(960, 540)"><path d="M-351 0C-331.4 -55 -311.7 -110 -284.9 -164.5C-258.1 -219 -224.2 -273 -175.5 -304C-126.8 -335 -63.4 -343 0 -351L0 0Z" fill="#111927"></path></g><g transform="translate(0, 0)"><path d="M351 0C347.8 71.7 344.6 143.4 304 175.5C263.4 207.6 185.4 199.9 128.5 222.6C71.6 245.2 35.8 298.1 0 351L0 0Z" fill="#111927"></path></g></svg>
